<svg xmlns="http://www.w3.org/2000/svg" width="24" height="24" viewBox="0 0 24 24"><defs><style>.a{fill:none;}.b{fill:#a3a7ab;}</style></defs><g transform="translate(-1811 -110)"><rect class="a" width="24" height="24" transform="translate(1811 110)"/><g transform="translate(1811 110)"><g transform="translate(5.143)"><path class="b" d="M103.257,0a.857.857,0,0,0-.857.857V2.571h1.714V.857A.857.857,0,0,0,103.257,0Z" transform="translate(-102.4)"/></g><g transform="translate(17.143)"><path class="b" d="M342.19,0a.857.857,0,0,0-.857.857V2.571h1.714V.857A.857.857,0,0,0,342.19,0Z" transform="translate(-341.333)"/></g><g transform="translate(0 2.571)"><path class="b" d="M21.429,51.2H18.857v3.429a.857.857,0,1,1-1.714,0V51.2H6.857v3.429a.857.857,0,0,1-1.714,0V51.2H2.571A2.571,2.571,0,0,0,0,53.771V70.057a2.571,2.571,0,0,0,2.571,2.571H21.429A2.571,2.571,0,0,0,24,70.057V53.771A2.571,2.571,0,0,0,21.429,51.2Zm.857,18.857a.857.857,0,0,1-.857.857H2.571a.857.857,0,0,1-.857-.857V58.914H22.286Z" transform="translate(0 -51.2)"/></g><g transform="translate(6 12)"><path class="b" d="M131.212,239.189a.857.857,0,0,0-1.212,0l-6.251,6.251-2.823-2.823a.857.857,0,1,0-1.212,1.213l3.429,3.429a.857.857,0,0,0,1.212,0l6.857-6.857A.857.857,0,0,0,131.212,239.189Z" transform="translate(-119.463 -238.938)"/></g></g></g></svg>