<svg xmlns="http://www.w3.org/2000/svg" width="40" height="40" viewBox="0 0 40 40"><defs><style>.a{fill:#fff;}</style></defs><path class="a" d="M20,0A20,20,0,1,0,40,20,20.022,20.022,0,0,0,20,0Zm0,36.9A16.9,16.9,0,1,1,36.9,20,16.921,16.921,0,0,1,20,36.9Z"/><g transform="translate(10.705 10.565)"><path class="a" d="M154.063,142.984h-6.2v-6.2a1.549,1.549,0,0,0-3.1,0v6.2h-6.2a1.549,1.549,0,0,0,0,3.1h6.2v6.2a1.549,1.549,0,0,0,3.1,0v-6.2h6.2a1.549,1.549,0,0,0,0-3.1Z" transform="translate(-137.022 -135.238)"/></g></svg>